<?xml version="1.0" encoding="utf-8" ?>
<svg xmlns="http://www.w3.org/2000/svg" xmlns:xlink="http://www.w3.org/1999/xlink" width="1781" height="4095">
	<path fill="#FEFEFE" transform="matrix(1 0 0 0.999756 0 -6.10352e-05)" d="M0 0L1781 0L1781 4096L0 4096L0 0Z"/>
	<path transform="matrix(1 0 0 0.999756 0 -6.10352e-05)" d="M977.495 366.47C979.676 365.882 982.457 364.771 984.475 367.064C989.781 373.094 975.355 566.33 971.913 626.531C970.992 642.629 967.535 675.304 970.151 689.858C970.249 690.405 971.005 694.122 971.466 694.672C975.369 699.33 1002.89 703.304 1009.05 704.966C1083.91 725.173 1167.25 776.836 1234.42 856.227C1254.24 879.655 1271.34 912.56 1291.14 935.399C1270.97 950.525 1250.16 962.262 1229.82 976.424L1097.57 1070.73C1082.19 1081.72 1066.39 1090.42 1051.18 1102.44C1050.63 1171.08 1046.04 1236.51 1040.98 1303.99C1029.57 1456.22 1014.16 1617.4 971.451 1741.27C954.545 1790.3 933.297 1830.95 908.413 1856.78C878.682 1887.64 842.798 1897.3 810.86 1911.7C765.299 1932.24 719.507 1953.89 673.367 1966.24C664.031 1986.25 656.411 1999.61 644.348 2009.97C665.564 2017.61 687.732 2014.91 709.168 2016.52C730.761 2018.15 762.049 2029.38 782.843 2043.41C736.671 2046.37 690.101 2030.59 644.021 2039.94C639.743 2040.81 633.807 2041.28 630.933 2049.12C638.756 2076.97 717.069 2067.12 734.326 2067.27Q758.724 2067.56 783.078 2070.92C809.406 2074.88 839.063 2081.5 863.743 2103.51C872.459 2111.28 883.557 2124.39 888.141 2143.9C891.208 2156.95 892.592 2172.2 893.263 2186.87C895.909 2244.78 893.542 2309.04 892.744 2367.52C892.425 2390.88 893.122 2414.63 892.408 2437.9C891.385 2471.23 881.203 2651.79 885.251 2668.66C887.293 2677.17 922.56 2658.08 927.612 2655.68C949.167 2645.44 970.888 2638.59 992.608 2630.54L1084.85 2595.3L1218.38 2546.68C1240.15 2538.95 1262.21 2528.66 1284.06 2523.22C1286.57 2522.6 1288.57 2522.31 1291.01 2523.84L1291.15 2526.54C1281.32 2544.72 1238.13 2558.05 1224.75 2564.72L1149.45 2602.47C1131.79 2611.11 1113.37 2617.92 1096.24 2631.26C1070.37 2651.4 1072.48 2673.45 1076.83 2727.51C1083.63 2812.13 1089.75 2898.99 1090 2985.26C1090.05 3002.28 1088.78 3019.08 1088.61 3036.04C1088.46 3051.02 1089.21 3066 1088.94 3080.99C1086.65 3207.3 1074.28 3332.31 1056.18 3451.28C1053.99 3465.7 1052.56 3480.73 1050.3 3495.08C1047.83 3510.77 1044.47 3525.73 1041.86 3541.31C1032.81 3595.21 1024.88 3648.52 1013.72 3700.55C1003.25 3749.48 992.497 3796.08 975.528 3834.86C961.643 3866.59 940.958 3887.06 921.356 3886.29C881.039 3884.7 766.134 3775.77 739.35 3710.87C730.855 3690.28 727.446 3670.35 729.919 3642.16C731.925 3619.27 736.83 3597.81 741.176 3576.92C747.928 3544.47 754.839 3511.6 762.497 3480.21C768.102 3457.24 774.704 3435.22 779.916 3411.79C795.414 3342.14 835.875 3057.56 836.306 2987.21C836.704 2922.36 810.259 2863.65 789.362 2827.29C776.747 2805.33 762.874 2787.01 751.835 2760.65C729.262 2758.14 673.48 2754.04 655.225 2733.47C650.507 2728.15 648.719 2720.19 647.51 2708.73C643.866 2674.2 645.889 2632.59 645.904 2597.12Q646.022 2516.47 644.563 2435.88C643.91 2389.05 643.896 2340.62 639.478 2294.72C637.298 2272.07 631.131 2232.13 626.677 2211.38C623.131 2194.87 618.804 2179.42 616.107 2161.99C609.542 2153.23 603.213 2143.52 596.537 2135.21C586.85 2123.14 576.905 2113 567.814 2098.52C573.679 2087.83 578.953 2077.07 584.012 2064.35C579.503 2060.14 574.809 2056.51 570.854 2049.88C571.283 2015.61 671.13 1922.16 676.233 1881.95C670.294 1855.08 574.612 1809.36 555.183 1797.74Q532.529 1784.22 510.347 1767.05C484.739 1746.87 458.128 1722.2 437.089 1682.29C430.955 1670.66 415.637 1636.76 414.88 1619C416.912 1616.04 418.617 1616.55 421.006 1616.77C441.93 1618.62 463.333 1626.28 484.231 1630.95C520.547 1639.07 557.005 1646.05 593.235 1655.98C602.845 1658.61 612.281 1664.05 621.854 1666.64C634.031 1669.93 646.481 1670.72 658.719 1673.53Q694.709 1682.27 730.575 1693.38Q772.635 1705.9 814.633 1719.47C826.732 1723.35 839.032 1729.17 851.16 1731.9C852.841 1732.27 854.047 1732.28 855.668 1730.89C857.029 1729.72 857.087 1728.31 857.764 1725.5C866.051 1691.17 870.78 1652.09 877.895 1616.39L952.353 1239.91C960.787 1197.62 967.306 1150.9 976.911 1110.2C977.071 1109.52 977.238 1108.84 977.402 1108.16C961.562 1103.62 945.29 1102.47 929.348 1100.36Q881.98 1093.47 834.517 1093.87C815.148 1094.48 795.78 1098.08 776.418 1097.99C784.603 1079.78 794.06 1065.28 802.827 1048.67C819.67 1016.75 836.686 977.925 849.965 938.14C847.238 934.216 844.402 930.271 842.153 924.923C836 910.287 830.82 892.325 825.15 876.586C814.576 847.23 802.606 818.155 793.353 786.565C790.877 778.111 788.359 768.135 787.288 758.204C784.185 729.43 793.703 688.203 799.846 664.001C808.852 628.516 820.073 596.603 830.592 563.562C862.804 462.377 875.048 434.543 928.112 399.128C944.563 388.149 960.925 376.488 977.495 366.47Z"/>
</svg>
