<?xml version="1.0" encoding="UTF-8"?>
<svg width="100%" height="100%" viewBox="0 0 100 100" version="1.1" xmlns="http://www.w3.org/2000/svg">
    <g transform="scale(-1,1) translate(-100,0)">
        <path d="M50 0C77.6142 0 100 22.3858 100 50C100 77.6142 77.6142 100 50 100C22.3858 100 0 77.6142 0 50C0 22.3858 22.3858 0 50 0ZM50 10C27.9086 10 10 27.9086 10 50C10 72.0914 27.9086 90 50 90C72.0914 90 90 72.0914 90 50C90 27.9086 72.0914 10 50 10Z" fill="#1a1a1a"/>
        <path d="M35 35H65V65H35V35ZM45 45V55H55V45H45Z" fill="#1a1a1a"/>
    </g>
</svg>
